<?xml version="1.0" encoding="UTF-8" standalone="no"?>
<svg
   data-name="Capa 1"
   id="Capa_1"
   viewBox="0 0 20 19.84"
   version="1.1"
   sodipodi:docname="8155520_close_delete_remove_cancel_trash_icon.svg"
   inkscape:version="1.2.2 (b0a8486541, 2022-12-01)"
   xmlns:inkscape="http://www.inkscape.org/namespaces/inkscape"
   xmlns:sodipodi="http://sodipodi.sourceforge.net/DTD/sodipodi-0.dtd"
   xmlns="http://www.w3.org/2000/svg"
   xmlns:svg="http://www.w3.org/2000/svg">
  <defs
     id="defs249" />
  <sodipodi:namedview
     id="namedview247"
     pagecolor="#505050"
     bordercolor="#eeeeee"
     borderopacity="1"
     inkscape:showpageshadow="0"
     inkscape:pageopacity="0"
     inkscape:pagecheckerboard="0"
     inkscape:deskcolor="#505050"
     showgrid="false"
     inkscape:zoom="42.288306"
     inkscape:cx="8.6903457"
     inkscape:cy="9.9081765"
     inkscape:window-width="1920"
     inkscape:window-height="1011"
     inkscape:window-x="0"
     inkscape:window-y="32"
     inkscape:window-maximized="1"
     inkscape:current-layer="Capa_1" />
  <path
     d="M10.17,10l3.89-3.89a.37.37,0,1,0-.53-.53L9.64,9.43,5.75,5.54a.37.37,0,1,0-.53.53L9.11,10,5.22,13.85a.37.37,0,0,0,0,.53.34.34,0,0,0,.26.11.36.36,0,0,0,.27-.11l3.89-3.89,3.89,3.89a.34.34,0,0,0,.26.11.35.35,0,0,0,.27-.11.37.37,0,0,0,0-.53Z"
     id="path244"
     style="fill:#ffffff" />
</svg>
